<svg xmlns="http://www.w3.org/2000/svg" xmlns:xlink="http://www.w3.org/1999/xlink" width="50" zoomAndPan="magnify" viewBox="0 0 37.5 37.499999" height="50" preserveAspectRatio="xMidYMid meet" version="1.0"><defs><clipPath id="093d8ff7eb"><path d="M 0 4.660156 L 37.007812 4.660156 L 37.007812 32.339844 L 0 32.339844 Z M 0 4.660156 " clip-rule="nonzero"/></clipPath></defs><g clip-path="url(#093d8ff7eb)"><path fill="#186af4" d="M 15.328125 17.585938 L 17.617188 15.316406 C 18.101562 14.835938 18.886719 14.839844 19.367188 15.324219 L 21.683594 17.660156 C 22.167969 18.144531 22.164062 18.925781 21.679688 19.410156 L 19.386719 21.679688 C 18.902344 22.160156 18.121094 22.15625 17.640625 21.671875 L 15.320312 19.335938 C 14.839844 18.851562 14.839844 18.070312 15.328125 17.585938 Z M 35.207031 14.167969 L 27.441406 6.351562 C 25.207031 4.105469 21.574219 4.089844 19.320312 6.320312 L 24.375 11.40625 L 30.441406 17.511719 L 30.464844 17.53125 L 30.460938 17.535156 C 31 18.097656 30.992188 18.984375 30.433594 19.539062 L 24.320312 25.59375 L 24.300781 25.617188 C 23.804688 26.089844 23.089844 25.316406 23.578125 24.835938 L 26.976562 21.464844 C 28.597656 19.863281 28.605469 17.25 27 15.632812 L 18.085938 6.664062 C 15.679688 4.242188 11.773438 4.226562 9.347656 6.628906 L 1.832031 14.078125 C -0.597656 16.484375 -0.613281 20.402344 1.796875 22.828125 L 9.566406 30.644531 C 11.800781 32.890625 15.433594 32.90625 17.683594 30.675781 L 12.628906 25.589844 L 6.5625 19.484375 L 6.542969 19.464844 L 6.542969 19.460938 C 6.003906 18.898438 6.011719 18.007812 6.570312 17.457031 L 12.683594 11.402344 L 12.707031 11.378906 C 13.199219 10.90625 13.914062 11.679688 13.425781 12.160156 L 10.027344 15.53125 C 8.410156 17.132812 8.398438 19.746094 10.003906 21.363281 L 18.921875 30.332031 C 21.324219 32.753906 25.234375 32.769531 27.65625 30.367188 L 35.175781 22.917969 C 37.601562 20.511719 37.617188 16.59375 35.207031 14.167969 " fill-opacity="1" fill-rule="nonzero"/></g></svg>